<?xml version="1.0" encoding="utf-8"?>
<!-- Generator: Adobe Illustrator 26.5.0, SVG Export Plug-In . SVG Version: 6.00 Build 0)  -->
<svg version="1.1" id="レイヤー_1" xmlns="http://www.w3.org/2000/svg" xmlns:xlink="http://www.w3.org/1999/xlink" x="0px"
	 y="0px" viewBox="0 0 76 76" style="enable-background:new 0 0 76 76;" xml:space="preserve">
<style type="text/css">
	.st0{fill:#FFF799;}
	.st1{fill:#9FBC2E;}
	.st2{fill:#C4D82E;}
	.st3{fill:#000066;}
</style>
<g>
	<g>
		<path id="rect1313_00000126322554157284629770000015355596642068405937_" class="st0" d="M-0.2-0.1h76c0,0,0,0,0,0v76c0,0,0,0,0,0
			h-76c0,0,0,0,0,0L-0.2-0.1C-0.2-0.1-0.2-0.1-0.2-0.1z"/>
		<path id="path1341_00000161600158248559936110000004123347145331433126_" class="st1" d="M75.7-0.1C75.7-0.1,75.8-0.1,75.7-0.1
			l0,76c0,0,0,0,0,0h-76c0,0,0,0,0,0L75.7-0.1z"/>
		<polygon id="rect1311_00000045620254545006693960000010786073708379890836_" class="st2" points="8.3,8.4 67.2,8.4 67.2,8.4 
			67.2,67.4 67.2,67.4 8.3,67.4 8.2,67.4 8.2,8.4 		"/>
	</g>
</g>
<g>
	<path class="st3" d="M34.7,53.5h6.1v6.3h-6.1V53.5z M34,14.2h7.5l-1,31.6H35L34,14.2z"/>
</g>
</svg>
