<?xml version="1.0" encoding="utf-8"?>
<!-- Generator: Adobe Illustrator 26.5.0, SVG Export Plug-In . SVG Version: 6.00 Build 0)  -->
<svg version="1.1" id="レイヤー_1" xmlns="http://www.w3.org/2000/svg" xmlns:xlink="http://www.w3.org/1999/xlink" x="0px"
	 y="0px" viewBox="0 0 76 76" style="enable-background:new 0 0 76 76;" xml:space="preserve">
<style type="text/css">
	.st0{fill:#FDFCFD;}
	.st1{fill:#ABADB0;}
	.st2{fill:#C6CDC9;}
	.st3{fill:#FF0000;}
</style>
<g>
	<g>
		<g>
			<path id="rect1313_00000131325475406905612430000001608122101940379036_" class="st0" d="M0,0h76c0,0,0,0,0,0v76c0,0,0,0,0,0H0
				c0,0,0,0,0,0L0,0C0,0,0,0,0,0z"/>
			<path id="path1341_00000066473768076182884070000002017936466551872909_" class="st1" d="M76,0C76,0,76,0,76,0l0,76c0,0,0,0,0,0
				H0c0,0,0,0,0,0L76,0z"/>
			<polygon id="rect1311_00000132047970832736584550000002366381489110351029_" class="st2" points="8.5,8.5 67.5,8.5 67.5,8.5 
				67.5,67.5 67.5,67.5 8.5,67.5 8.5,67.5 8.5,8.5 			"/>
		</g>
	</g>
	<g>
		<polygon points="36,54.9 36,15.9 40,15.9 40,54.9 		"/>
		<polygon class="st3" points="40,13.3 19.4,26.4 40,39.5 		"/>
		<rect x="28.6" y="51" width="18.9" height="5.5"/>
		<rect x="20.2" y="55.9" width="35.6" height="7"/>
	</g>
</g>
</svg>
