<?xml version="1.0" encoding="utf-8"?>
<!-- Generator: Adobe Illustrator 26.5.0, SVG Export Plug-In . SVG Version: 6.00 Build 0)  -->
<svg version="1.1" id="レイヤー_1" xmlns="http://www.w3.org/2000/svg" xmlns:xlink="http://www.w3.org/1999/xlink" x="0px"
	 y="0px" viewBox="0 0 76 76" style="enable-background:new 0 0 76 76;" xml:space="preserve">
<style type="text/css">
	.st0{fill:#FFF799;}
	.st1{fill:#9FBC2E;}
	.st2{fill:#C4D82E;}
	.st3{fill:#2C285D;}
</style>
<g>
	<g>
		<path id="rect1313_00000126322554157284629770000015355596642068405937_" class="st0" d="M0,0h76c0,0,0,0,0,0v76c0,0,0,0,0,0H0
			c0,0,0,0,0,0L0,0C0,0,0,0,0,0z"/>
		<path id="path1341_00000161600158248559936110000004123347145331433126_" class="st1" d="M76,0C76,0,76,0,76,0l0,76c0,0,0,0,0,0H0
			c0,0,0,0,0,0L76,0z"/>
		<polygon id="rect1311_00000045620254545006693960000010786073708379890836_" class="st2" points="8.5,8.5 67.5,8.5 67.5,8.5 
			67.5,67.5 67.5,67.5 8.5,67.5 8.5,67.5 8.5,8.5 		"/>
	</g>
</g>
<g>
	<path class="st3" d="M24.7,28.7c0-4.6,1.6-8.3,4.7-11.3c2.2-2.1,5.2-3.2,8.9-3.2c4.1,0,7.2,1.1,9.4,3.2c2.4,2.3,3.6,5.2,3.6,8.7
		c0,3-1.1,5.5-3.3,7.6c-1.3,1.2-3.1,2.9-5.3,5c-1.7,1.6-2.5,4-2.5,7.1h-5c0-3.9,0.6-6.8,1.9-8.7c0.9-1.4,2.7-3.3,5.3-5.8
		c1.5-1.4,2.2-3.1,2.2-5c0-2.5-0.7-4.3-1.9-5.5c-1.1-1.1-2.7-1.6-4.7-1.6c-1.7,0-3.1,0.5-4.2,1.6c-1.9,1.8-2.8,4.4-2.8,7.9
		L24.7,28.7L24.7,28.7z M34.7,53.5h6.1v6.3h-6.1V53.5z"/>
</g>
</svg>
